<svg xmlns="http://www.w3.org/2000/svg" width="12" height="12" viewBox="0 0 12 12" fill="none">
  <path d="M4.03587 7.82204L7.67881 4.1791M5.25018 2.35763L5.5313 2.03219C6.10069 1.46288 6.87293 1.14307 7.67812 1.14313C8.48331 1.14318 9.25549 1.4631 9.82481 2.03249C10.3941 2.60189 10.7139 3.37412 10.7139 4.17931C10.7138 4.9845 10.3939 5.75669 9.82451 6.32601L9.50028 6.60773M6.4645 9.64351L6.22346 9.96774C5.64742 10.5374 4.86998 10.8568 4.05985 10.8568C3.24973 10.8568 2.47229 10.5374 1.89625 9.96774C1.61232 9.68699 1.3869 9.3527 1.23306 8.98423C1.07922 8.61576 1 8.22043 1 7.82113C1 7.42183 1.07922 7.0265 1.23306 6.65803C1.3869 6.28956 1.61232 5.95528 1.89625 5.67453L2.2144 5.39341" stroke="white" stroke-width="1.21431" stroke-linecap="round" stroke-linejoin="round"/>
</svg>