<svg xmlns="http://www.w3.org/2000/svg" width="16" height="16" viewBox="0 0 16 16" fill="none">
  <path d="M5.33215 6.66686C5.33215 6.31324 5.47263 5.9741 5.72268 5.72405C5.97273 5.474 6.31186 5.33353 6.66549 5.33353H11.9988C12.3524 5.33353 12.6916 5.474 12.9416 5.72405C13.1917 5.9741 13.3322 6.31324 13.3322 6.66686V12.0002C13.3322 12.3538 13.1917 12.693 12.9416 12.943C12.6916 13.1931 12.3524 13.3335 11.9988 13.3335H6.66549C6.31186 13.3335 5.97273 13.1931 5.72268 12.943C5.47263 12.693 5.33215 12.3538 5.33215 12.0002V6.66686Z" stroke="white" stroke-width="1.33333" stroke-linecap="round" stroke-linejoin="round"/>
  <path d="M10.6671 5.33369V4.00036C10.6671 3.64673 10.5266 3.3076 10.2766 3.05755C10.0265 2.8075 9.6874 2.66702 9.33378 2.66702H4.00045C3.64683 2.66702 3.30769 2.8075 3.05764 3.05755C2.80759 3.3076 2.66711 3.64673 2.66711 4.00036V9.33369C2.66711 9.68731 2.80759 10.0264 3.05764 10.2765C3.30769 10.5265 3.64683 10.667 4.00045 10.667H5.33378" stroke="white" stroke-width="1.33333" stroke-linecap="round" stroke-linejoin="round"/>
</svg>