<svg xmlns="http://www.w3.org/2000/svg" width="21" height="21" viewBox="0 0 21 21" fill="none">
  <g opacity="0.4">
    <path fill-rule="evenodd" clip-rule="evenodd" d="M2.81916 0.133789H6.23017C7.65311 0.133789 8.79347 1.29284 8.79347 2.71495V6.1508C8.79347 7.58198 7.65311 8.73095 6.23017 8.73095H2.81916C1.40632 8.73095 0.255859 7.58198 0.255859 6.1508V2.71495C0.255859 1.29284 1.40632 0.133789 2.81916 0.133789ZM2.81916 11.694H6.23017C7.65311 11.694 8.79347 12.844 8.79347 14.2751V17.711C8.79347 19.1321 7.65311 20.2911 6.23017 20.2911H2.81916C1.40632 20.2911 0.255859 19.1321 0.255859 17.711V14.2751C0.255859 12.844 1.40632 11.694 2.81916 11.694ZM17.8758 0.133789H14.4648C13.0419 0.133789 11.9015 1.29284 11.9015 2.71495V6.1508C11.9015 7.58198 13.0419 8.73095 14.4648 8.73095H17.8758C19.2886 8.73095 20.4391 7.58198 20.4391 6.1508V2.71495C20.4391 1.29284 19.2886 0.133789 17.8758 0.133789ZM14.4648 11.6941H17.8758C19.2886 11.6941 20.4391 12.8441 20.4391 14.2753V17.7111C20.4391 19.1322 19.2886 20.2913 17.8758 20.2913H14.4648C13.0419 20.2913 11.9015 19.1322 11.9015 17.7111V14.2753C11.9015 12.8441 13.0419 11.6941 14.4648 11.6941Z" fill="#030229"/>
  </g>
</svg>