<svg xmlns="http://www.w3.org/2000/svg" width="14" height="16" viewBox="0 0 14 16" fill="none">
  <g clip-path="url(#clip0_84_2776)">
    <path d="M8.34867 15.4789C10.3822 13.7257 14 10.144 14 6.85714C14 5.03852 13.2625 3.29437 11.9497 2.00841C10.637 0.722447 8.85651 0 7 0C5.14348 0 3.36301 0.722447 2.05025 2.00841C0.737498 3.29437 2.76642e-08 5.03852 0 6.85714C0 10.144 3.61667 13.7257 5.65133 15.4789C6.02246 15.8034 6.50253 15.9827 7 15.9827C7.49747 15.9827 7.97753 15.8034 8.34867 15.4789ZM4.66667 6.85714C4.66667 6.25093 4.9125 5.66955 5.35008 5.2409C5.78767 4.81224 6.38116 4.57143 7 4.57143C7.61884 4.57143 8.21233 4.81224 8.64991 5.2409C9.0875 5.66955 9.33333 6.25093 9.33333 6.85714C9.33333 7.46335 9.0875 8.04473 8.64991 8.47339C8.21233 8.90204 7.61884 9.14286 7 9.14286C6.38116 9.14286 5.78767 8.90204 5.35008 8.47339C4.9125 8.04473 4.66667 7.46335 4.66667 6.85714Z" fill="#9A9AA9"/>
  </g>
  <defs>
    <clipPath id="clip0_84_2776">
      <rect width="14" height="16" fill="white"/>
    </clipPath>
  </defs>
</svg>