<svg xmlns="http://www.w3.org/2000/svg" width="25" height="25" viewBox="0 0 25 25" fill="none">
  <path fill-rule="evenodd" clip-rule="evenodd" d="M16.3809 12.0551C16.3809 11.8562 16.3019 11.6654 16.1613 11.5248C16.0206 11.3841 15.8298 11.3051 15.6309 11.3051H4.65793L6.61893 9.62511C6.69378 9.56103 6.75528 9.48283 6.79991 9.39497C6.84454 9.30712 6.87143 9.21134 6.87905 9.11309C6.88666 9.01485 6.87485 8.91607 6.84429 8.82239C6.81373 8.72871 6.76501 8.64197 6.70093 8.56711C6.63684 8.49226 6.55864 8.43076 6.47079 8.38613C6.38294 8.3415 6.28716 8.31461 6.18891 8.30699C6.09067 8.29938 5.99188 8.31119 5.8982 8.34175C5.80452 8.37231 5.71778 8.42103 5.64293 8.48511L2.14293 11.4851C2.06059 11.5555 1.99449 11.6429 1.94917 11.7413C1.90384 11.8397 1.88037 11.9468 1.88037 12.0551C1.88037 12.1634 1.90384 12.2705 1.94917 12.3689C1.99449 12.4673 2.06059 12.5547 2.14293 12.6251L5.64293 15.6251C5.7941 15.7545 5.9905 15.8186 6.18891 15.8032C6.38732 15.7879 6.5715 15.6943 6.70093 15.5431C6.83035 15.3919 6.89443 15.1955 6.87905 14.9971C6.86367 14.7987 6.7701 14.6145 6.61893 14.4851L4.65893 12.8051H15.6309C15.8298 12.8051 16.0206 12.7261 16.1613 12.5854C16.3019 12.4448 16.3809 12.254 16.3809 12.0551Z" fill="#9A9AA9"/>
  <path d="M9.63086 8.05511C9.63086 8.75711 9.63086 9.10811 9.79986 9.36111C9.87265 9.46989 9.96608 9.56333 10.0749 9.63612C10.3279 9.80512 10.6789 9.80511 11.3809 9.80511H15.6309C16.2276 9.80511 16.7999 10.0422 17.2218 10.4641C17.6438 10.8861 17.8809 11.4584 17.8809 12.0551C17.8809 12.6519 17.6438 13.2241 17.2218 13.6461C16.7999 14.0681 16.2276 14.3051 15.6309 14.3051H11.3809C10.6789 14.3051 10.3279 14.3051 10.0749 14.4731C9.96598 14.5462 9.87254 14.64 9.79986 14.7491C9.63086 15.0021 9.63086 15.3531 9.63086 16.0551C9.63086 18.8831 9.63086 20.2981 10.5099 21.1761C11.3879 22.0551 12.8019 22.0551 15.6299 22.0551H16.6299C19.4599 22.0551 20.8729 22.0551 21.7519 21.1761C22.6309 20.2981 22.6309 18.8831 22.6309 16.0551V8.05511C22.6309 5.22711 22.6309 3.81211 21.7519 2.93411C20.8729 2.05511 19.4589 2.05511 16.6309 2.05511H15.6309C12.8019 2.05511 11.3879 2.05511 10.5099 2.93411C9.63086 3.81211 9.63086 5.22711 9.63086 8.05511Z" fill="#9A9AA9"/>
</svg>