<svg xmlns="http://www.w3.org/2000/svg" width="25" height="25" viewBox="0 0 25 25" fill="none">
  <g opacity="0.4">
    <path fill-rule="evenodd" clip-rule="evenodd" d="M7.65282 2.39368H17.0775C20.5097 2.39368 22.4473 4.32268 22.4574 7.72368V17.0637C22.4574 20.4637 20.5097 22.3937 17.0775 22.3937H7.65282C4.22062 22.3937 2.27393 20.4637 2.27393 17.0637V7.72368C2.27393 4.32268 4.22062 2.39368 7.65282 2.39368ZM12.4159 18.2536C12.8509 18.2536 13.2132 17.9336 13.2535 17.5036V7.31362C13.2939 7.00362 13.1435 6.69262 12.8711 6.52362C12.5875 6.35362 12.2444 6.35362 11.9729 6.52362C11.6994 6.69262 11.549 7.00362 11.5783 7.31362V17.5036C11.6298 17.9336 11.9921 18.2536 12.4159 18.2536ZM17.0583 18.2537C17.4822 18.2537 17.8445 17.9337 17.8959 17.5037V14.2237C17.9252 13.9027 17.7748 13.6037 17.5014 13.4337C17.2299 13.2637 16.8868 13.2637 16.6042 13.4337C16.3307 13.6037 16.1803 13.9027 16.2207 14.2237V17.5037C16.2611 17.9337 16.6234 18.2537 17.0583 18.2537ZM8.55043 17.5036C8.51006 17.9336 8.14777 18.2536 7.71282 18.2536C7.27887 18.2536 6.91557 17.9336 6.87621 17.5036V10.5936C6.84594 10.2826 6.9963 9.97365 7.26979 9.80365C7.54126 9.63365 7.88539 9.63365 8.15786 9.80365C8.42933 9.97365 8.58172 10.2826 8.55043 10.5936V17.5036Z" fill="#030229"/>
  </g>
</svg>