<svg xmlns="http://www.w3.org/2000/svg" width="25" height="25" viewBox="0 0 25 25" fill="none">
  <g opacity="0.4">
    <path fill-rule="evenodd" clip-rule="evenodd" d="M16.8171 3.54028L16.8181 4.28991C19.598 4.5058 21.4344 6.38286 21.4374 9.26142L21.4483 17.6872C21.4523 20.8256 19.4625 22.7567 16.2731 22.7617L8.48235 22.7717C5.31285 22.7757 3.29816 20.7986 3.29417 17.6512L3.28321 9.32439C3.27922 6.42684 5.0508 4.55478 7.83072 4.3019L7.82972 3.55228C7.82872 3.1125 8.15753 2.78166 8.59594 2.78166C9.03435 2.78067 9.36316 3.1105 9.36415 3.55028L9.36515 4.24993L15.2837 4.24193L15.2827 3.54228C15.2817 3.1025 15.6105 2.77267 16.0489 2.77167C16.4774 2.77067 16.8161 3.10051 16.8171 3.54028ZM4.81838 9.63326L19.9037 9.61327V9.26344C19.8608 7.11452 18.7728 5.98708 16.8198 5.81917L16.8208 6.58878C16.8208 7.01857 16.4831 7.3594 16.0546 7.3594C15.6162 7.3604 15.2864 7.02057 15.2864 6.59078L15.2854 5.78119L9.36688 5.78918L9.36788 6.59778C9.36788 7.02856 9.04007 7.36839 8.60166 7.36839C8.16325 7.36939 7.83344 7.03056 7.83344 6.59978L7.83245 5.83016C5.88949 6.02307 4.81439 7.1545 4.81738 9.32241L4.81838 9.63326ZM15.6357 14.1759V14.1869C15.6457 14.6467 16.0243 14.9955 16.4837 14.9855C16.932 14.9745 17.2897 14.5937 17.2798 14.134C17.2589 13.6942 16.8992 13.3354 16.4518 13.3364C15.9934 13.3464 15.6347 13.7162 15.6357 14.1759ZM16.4581 18.6637C15.9998 18.6537 15.6301 18.2749 15.6291 17.8151C15.6191 17.3554 15.9868 16.9746 16.4451 16.9636H16.4551C16.9234 16.9636 17.303 17.3424 17.303 17.8121C17.304 18.2819 16.9254 18.6627 16.4581 18.6637ZM11.5293 14.1921C11.5492 14.6518 11.9288 15.0106 12.3872 14.9907C12.8356 14.9697 13.1933 14.5899 13.1733 14.1301C13.1624 13.6803 12.7937 13.3305 12.3453 13.3315C11.887 13.3515 11.5283 13.7323 11.5293 14.1921ZM12.3921 18.6188C11.9337 18.6388 11.5551 18.28 11.5342 17.8202C11.5342 17.3605 11.8919 16.9806 12.3502 16.9597C12.7986 16.9587 13.1682 17.3085 13.1782 17.7573C13.1991 18.218 12.8404 18.5978 12.3921 18.6188ZM7.42492 14.227C7.44485 14.6867 7.82448 15.0465 8.28281 15.0256C8.73119 15.0056 9.08889 14.6248 9.06797 14.165C9.058 13.7152 8.68934 13.3654 8.23997 13.3664C7.78163 13.3864 7.42393 13.7672 7.42492 14.227ZM8.28659 18.6237C7.82826 18.6447 7.44963 18.2849 7.42871 17.8251C7.42771 17.3653 7.78641 16.9845 8.24475 16.9645C8.69312 16.9635 9.06278 17.3134 9.07274 17.7631C9.09367 18.2229 8.73596 18.6037 8.28659 18.6237Z" fill="#030229"/>
  </g>
</svg>