<svg xmlns="http://www.w3.org/2000/svg" width="21" height="17" viewBox="0 0 21 17" fill="none">
  <path fill-rule="evenodd" clip-rule="evenodd" d="M20.2246 7.01583C20.088 7.1484 19.9026 7.22415 19.7074 7.22415C18.9851 7.22415 18.3995 7.7923 18.3995 8.48355C18.3995 9.17953 18.9783 9.74484 19.6937 9.75242C20.0968 9.75621 20.4393 10.0289 20.4393 10.42V12.8488C20.4393 14.8932 18.7314 16.5513 16.6232 16.5513H13.4415C13.1126 16.5513 12.8461 16.2928 12.8461 15.9737V13.9283C12.8461 13.5306 12.5241 13.2181 12.1141 13.2181C11.714 13.2181 11.3822 13.5306 11.3822 13.9283V15.9737C11.3822 16.2928 11.1157 16.5513 10.7878 16.5513H4.07198C1.9736 16.5513 0.255859 14.8942 0.255859 12.8488V10.42C0.255859 10.0289 0.598432 9.75621 1.00152 9.75242C1.71789 9.74484 2.29568 9.17953 2.29568 8.48355C2.29568 7.81124 1.72961 7.29991 0.987852 7.29991C0.792654 7.29991 0.607216 7.22415 0.470577 7.09158C0.333939 6.95902 0.255859 6.7791 0.255859 6.58972V4.1372C0.255859 2.09565 1.97751 0.425293 4.08174 0.425293H10.7878C11.1157 0.425293 11.3822 0.683801 11.3822 1.00291V3.42702C11.3822 3.81525 11.714 4.1372 12.1141 4.1372C12.5241 4.1372 12.8461 3.81525 12.8461 3.42702V1.00291C12.8461 0.683801 13.1126 0.425293 13.4415 0.425293H16.6232C18.7314 0.425293 20.4393 2.0824 20.4393 4.12774V6.51396C20.4393 6.70335 20.3613 6.88326 20.2246 7.01583ZM12.1148 11.3811C12.5247 11.3811 12.8468 11.0592 12.8468 10.6709V6.88328C12.8468 6.49505 12.5247 6.1731 12.1148 6.1731C11.7146 6.1731 11.3828 6.49505 11.3828 6.88328V10.6709C11.3828 11.0592 11.7146 11.3811 12.1148 11.3811Z" fill="#9A9AA9"/>
</svg>