<svg xmlns="http://www.w3.org/2000/svg" width="16" height="20" viewBox="0 0 16 20" fill="none">
  <path d="M8.26793 11.4388L8.26807 11.4388C9.17502 11.4377 10.0445 11.0769 10.6858 10.4356C11.3271 9.79428 11.6879 8.92478 11.689 8.01783V8.01768C11.689 7.34106 11.4884 6.67963 11.1124 6.11704C10.7365 5.55445 10.2022 5.11596 9.57712 4.85703C8.952 4.59809 8.26413 4.53034 7.60051 4.66235C6.93689 4.79435 6.32731 5.12018 5.84887 5.59862C5.37042 6.07707 5.04459 6.68664 4.91259 7.35027C4.78059 8.01389 4.84834 8.70175 5.10727 9.32687C5.3662 9.95199 5.80469 10.4863 6.36728 10.8622C6.92988 11.2381 7.5913 11.4388 8.26793 11.4388ZM7.23199 6.46729C7.5386 6.26242 7.89906 6.15306 8.26781 6.15304C8.76223 6.15354 9.23625 6.35016 9.58585 6.69976C9.93545 7.04937 10.1321 7.52339 10.1326 8.0178C10.1325 8.38655 10.0232 8.74702 9.81832 9.05362C9.61343 9.36026 9.32222 9.59926 8.9815 9.74039C8.64078 9.88152 8.26586 9.91845 7.90416 9.8465C7.54245 9.77455 7.2102 9.59696 6.94943 9.33619C6.68865 9.07541 6.51106 8.74316 6.43911 8.38146C6.36717 8.01975 6.40409 7.64484 6.54522 7.30412C6.68635 6.9634 6.92535 6.67218 7.23199 6.46729Z" fill="#0033FF" stroke="#0033FF" stroke-width="0.235"/>
  <path d="M8.26787 19.4317L8.17825 19.326L2.60446 12.7525L2.60157 12.7491L2.60164 12.7491C2.5238 12.6499 2.44678 12.5501 2.37056 12.4496C1.40293 11.175 0.880181 9.61809 0.882508 8.01777M8.26787 19.4317L14.0722 12.3766C15.0239 11.123 15.538 9.59177 15.5357 8.01786H15.6532C15.6532 8.0178 15.6532 8.01774 15.6532 8.01768C15.6532 6.05903 14.8751 4.1806 13.4901 2.79562C12.1051 1.4106 10.2266 0.6325 8.26786 0.6325C6.30915 0.6325 4.43065 1.4106 3.04563 2.79562C1.66063 4.18062 0.882531 6.05908 0.882508 8.01777M8.26787 19.4317L8.35749 19.326L13.9332 12.75C13.9332 12.7499 13.9332 12.7499 13.9333 12.7499C13.9506 12.7294 14.0101 12.6523 14.062 12.5846L14.1335 12.4911L14.1565 12.4611L14.1628 12.4527L14.1645 12.4505L14.1649 12.4499L14.165 12.4498L14.1651 12.4498L14.1651 12.4498L14.0716 12.3786L14.1651 12.4498L14.1769 12.4342L14.1776 12.4321L8.26787 19.4317ZM0.882508 8.01777C0.882508 8.0178 0.882508 8.01783 0.882508 8.01786H1.00001L0.882508 8.01768C0.882508 8.01771 0.882508 8.01774 0.882508 8.01777ZM13.0177 11.5804C13.7955 10.5557 14.2158 9.30429 14.2143 8.01786C14.2143 6.44077 13.5878 4.92827 12.4726 3.8131C11.3575 2.69793 9.84496 2.07143 8.26786 2.07143C6.69077 2.07143 5.17828 2.69793 4.0631 3.8131C2.94793 4.92827 2.32144 6.44077 2.32144 8.01786C2.32005 9.30509 2.74018 10.5573 3.51865 11.5824M13.0177 11.5804L12.9347 11.4973L12.9289 11.5035L12.9271 11.5056L12.9258 11.5073L12.9248 11.5085L12.9241 11.5094M13.0177 11.5804L12.9241 11.5094M13.0177 11.5804C13.0176 11.5806 13.0083 11.5928 12.994 11.6118C12.9493 11.6708 12.8554 11.7947 12.8334 11.8222M12.9241 11.5094C13.6864 10.5052 14.0983 9.27872 14.0968 8.018V8.01786C14.0968 6.47193 13.4827 4.98932 12.3895 3.89618C11.2964 2.80305 9.81379 2.18893 8.26786 2.18893C6.72194 2.18893 5.23933 2.80305 4.14619 3.89618C3.05305 4.98932 2.43894 6.47193 2.43894 8.01786V8.01798C2.43758 9.27841 2.84859 10.5045 3.61017 11.5086M12.9241 11.5094L12.924 11.5096L12.9224 11.5117L12.9172 11.5185L12.8991 11.5424L12.8426 11.6169C12.8007 11.6722 12.7571 11.7295 12.7426 11.7476M3.61017 11.5086L3.60858 11.5067C3.60832 11.5064 3.60781 11.5058 3.6071 11.505C3.60622 11.504 3.60505 11.5027 3.60369 11.5013C3.60273 11.5003 3.5996 11.497 3.59523 11.4933C3.59326 11.4916 3.58837 11.4875 3.58149 11.4831C3.57796 11.481 3.56908 11.4763 3.56366 11.4739C3.55528 11.4708 3.53277 11.4658 3.51865 11.4649V11.5824M3.61017 11.5086C3.61085 11.5095 3.61154 11.5104 3.61223 11.5114L3.51865 11.5824M3.61017 11.5086L3.61228 11.5112L3.61855 11.5192L3.63726 11.5435L3.69433 11.6185C3.73705 11.6746 3.78193 11.7335 3.79896 11.7548M3.51865 11.5824C3.51926 11.5824 3.55187 11.6253 3.59037 11.6759C3.63576 11.7355 3.68933 11.8059 3.70828 11.8295M3.70828 11.8295L3.7979 11.7535L3.79896 11.7548M3.70828 11.8295L8.19084 17.1162L8.26786 17.0254M3.70828 11.8295L3.79989 11.7559C3.79959 11.7556 3.79928 11.7552 3.79896 11.7548M3.79896 11.7548L8.26786 17.0254M8.26786 17.0254L8.34489 17.1162L12.8334 11.8222M8.26786 17.0254L12.7426 11.7476M12.7426 11.7476C12.7423 11.7481 12.742 11.7485 12.7416 11.7488L12.8334 11.8222M12.7426 11.7476L12.7438 11.7463L12.8334 11.8222" fill="#0033FF" stroke="#0033FF" stroke-width="0.235"/>
</svg>