<svg xmlns="http://www.w3.org/2000/svg" width="19" height="20" viewBox="0 0 19 20" fill="none">
  <path d="M13.283 11.85C13.357 11.2395 13.4125 10.629 13.4125 10C13.4125 9.371 13.357 8.7605 13.283 8.15H16.4095C16.5575 8.742 16.65 9.36175 16.65 10C16.65 10.6383 16.5575 11.258 16.4095 11.85M11.6458 16.993C12.2008 15.9662 12.6263 14.8562 12.9223 13.7H15.651C14.7548 15.2432 13.3331 16.4121 11.6458 16.993ZM11.4145 11.85H7.0855C6.993 11.2395 6.9375 10.629 6.9375 10C6.9375 9.371 6.993 8.75125 7.0855 8.15H11.4145C11.4978 8.75125 11.5625 9.371 11.5625 10C11.5625 10.629 11.4978 11.2395 11.4145 11.85ZM9.25 17.363C8.48225 16.253 7.8625 15.0227 7.48325 13.7H11.0168C10.6375 15.0227 10.0177 16.253 9.25 17.363ZM5.55 6.3H2.849C3.73594 4.75267 5.15669 3.58187 6.845 3.007C6.29 4.03375 5.87375 5.14375 5.55 6.3ZM2.849 13.7H5.55C5.87375 14.8562 6.29 15.9662 6.845 16.993C5.16023 16.4118 3.74148 15.2426 2.849 13.7ZM2.0905 11.85C1.9425 11.258 1.85 10.6383 1.85 10C1.85 9.36175 1.9425 8.742 2.0905 8.15H5.217C5.143 8.7605 5.0875 9.371 5.0875 10C5.0875 10.629 5.143 11.2395 5.217 11.85M9.25 2.62775C10.0177 3.73775 10.6375 4.97725 11.0168 6.3H7.48325C7.8625 4.97725 8.48225 3.73775 9.25 2.62775ZM15.651 6.3H12.9223C12.6327 5.15435 12.2041 4.04845 11.6458 3.007C13.3478 3.58975 14.763 4.7645 15.651 6.3ZM9.25 0.75C4.13475 0.75 0 4.9125 0 10C0 12.4533 0.974551 14.806 2.70926 16.5407C3.5682 17.3997 4.58792 18.081 5.71018 18.5459C6.83244 19.0107 8.03527 19.25 9.25 19.25C11.7033 19.25 14.056 18.2754 15.7907 16.5407C17.5254 14.806 18.5 12.4533 18.5 10C18.5 8.78527 18.2607 7.58244 17.7959 6.46018C17.331 5.33792 16.6497 4.3182 15.7907 3.45926C14.9318 2.60032 13.9121 1.91897 12.7898 1.45411C11.6676 0.989258 10.4647 0.75 9.25 0.75Z" fill="#0033FF"/>
</svg>