<svg xmlns="http://www.w3.org/2000/svg" width="25" height="25" viewBox="0 0 25 25" fill="none">
  <g opacity="0.4">
    <path fill-rule="evenodd" clip-rule="evenodd" d="M8.13733 2.58267H16.5952C19.7126 2.58267 21.4483 4.36267 21.4483 7.41267V17.7427C21.4483 20.8427 19.7126 22.5827 16.5952 22.5827H8.13733C5.06944 22.5827 3.2832 20.8427 3.2832 17.7427V7.41267C3.2832 4.36267 5.06944 2.58267 8.13733 2.58267ZM8.41021 7.24257V7.23257H11.4266C11.8616 7.23257 12.2148 7.58257 12.2148 8.01157C12.2148 8.45257 11.8616 8.80257 11.4266 8.80257H8.41021C7.97525 8.80257 7.62305 8.45257 7.62305 8.02257C7.62305 7.59257 7.97525 7.24257 8.41021 7.24257ZM8.41021 13.3226H16.3221C16.7561 13.3226 17.1093 12.9726 17.1093 12.5426C17.1093 12.1126 16.7561 11.7616 16.3221 11.7616H8.41021C7.97525 11.7616 7.62305 12.1126 7.62305 12.5426C7.62305 12.9726 7.97525 13.3226 8.41021 13.3226ZM8.41021 17.8926H16.3221C16.7248 17.8526 17.0286 17.5116 17.0286 17.1126C17.0286 16.7026 16.7248 16.3626 16.3221 16.3226H8.41021C8.10746 16.2926 7.8148 16.4326 7.65333 16.6926C7.49186 16.9426 7.49186 17.2726 7.65333 17.5326C7.8148 17.7826 8.10746 17.9326 8.41021 17.8926Z" fill="#030229"/>
  </g>
</svg>