<svg xmlns="http://www.w3.org/2000/svg" width="25" height="26" viewBox="0 0 25 26" fill="none">
  <g opacity="0.4">
    <path fill-rule="evenodd" clip-rule="evenodd" d="M20.8454 14.5406C21.2064 14.7306 21.4848 15.0306 21.6808 15.3306C22.0624 15.9506 22.0314 16.7106 21.6602 17.3806L20.9382 18.5806C20.5566 19.2206 19.845 19.6206 19.1128 19.6206C18.7518 19.6206 18.3496 19.5206 18.0195 19.3206C17.7514 19.1506 17.442 19.0906 17.112 19.0906C16.091 19.0906 15.2349 19.9206 15.204 20.9106C15.204 22.0606 14.2552 22.9606 13.0691 22.9606H11.6665C10.4702 22.9606 9.52136 22.0606 9.52136 20.9106C9.50073 19.9206 8.64472 19.0906 7.6237 19.0906C7.28337 19.0906 6.97397 19.1506 6.71613 19.3206C6.38611 19.5206 5.97357 19.6206 5.62292 19.6206C4.88036 19.6206 4.16874 19.2206 3.78715 18.5806L3.07553 17.3806C2.69393 16.7306 2.67331 15.9506 3.0549 15.3306C3.21991 15.0306 3.52931 14.7306 3.87997 14.5406C4.16874 14.4006 4.35438 14.1706 4.52971 13.9006C5.04537 13.0406 4.73597 11.9106 3.85934 11.4006C2.83832 10.8306 2.50829 9.56063 3.09615 8.57063L3.78715 7.39063C4.38532 6.40063 5.66417 6.05063 6.69551 6.63063C7.59277 7.11063 8.75817 6.79063 9.28415 5.94063C9.44916 5.66063 9.54199 5.36063 9.52136 5.06063C9.50073 4.67063 9.61418 4.30063 9.81013 4.00063C10.1917 3.38063 10.8827 2.98063 11.6356 2.96063H13.0898C13.853 2.96063 14.544 3.38063 14.9255 4.00063C15.1112 4.30063 15.2349 4.67063 15.204 5.06063C15.1834 5.36063 15.2762 5.66063 15.4412 5.94063C15.9672 6.79063 17.1326 7.11063 18.0402 6.63063C19.0612 6.05063 20.3504 6.40063 20.9382 7.39063L21.6292 8.57063C22.2274 9.56063 21.8974 10.8306 20.866 11.4006C19.9894 11.9106 19.68 13.0406 20.206 13.9006C20.371 14.1706 20.5566 14.4006 20.8454 14.5406ZM9.44882 12.9706C9.44882 14.5406 10.7586 15.7906 12.3778 15.7906C13.997 15.7906 15.2759 14.5406 15.2759 12.9706C15.2759 11.4006 13.997 10.1406 12.3778 10.1406C10.7586 10.1406 9.44882 11.4006 9.44882 12.9706Z" fill="#030229"/>
  </g>
</svg>