<svg xmlns="http://www.w3.org/2000/svg" width="15" height="16" viewBox="0 0 15 16" fill="none">
  <g opacity="0.4">
    <path fill-rule="evenodd" clip-rule="evenodd" d="M11.3759 1.33124L11.3766 1.8836C13.5388 2.04268 14.9671 3.42577 14.9694 5.54682L14.9779 11.7553C14.981 14.0678 13.4334 15.4907 10.9527 15.4944L4.89327 15.5017C2.4281 15.5047 0.861117 14.0479 0.858017 11.7288L0.849493 5.59321C0.846393 3.45818 2.22428 2.07876 4.38644 1.89244L4.38567 1.34008C4.38489 1.01603 4.64063 0.772261 4.98162 0.772261C5.3226 0.771524 5.57834 1.01456 5.57912 1.33861L5.57989 1.85414L10.1832 1.84825L10.1824 1.33272C10.1816 1.00867 10.4374 0.765632 10.7784 0.764894C11.1116 0.764159 11.3751 1.0072 11.3759 1.33124ZM2.04265 5.82079L13.7757 5.80606V5.5483C13.7423 3.96488 12.8961 3.13414 11.3771 3.01041L11.3779 3.57749C11.3779 3.89418 11.1152 4.14531 10.782 4.14531C10.441 4.14605 10.1845 3.89565 10.1845 3.57897L10.1837 2.98242L5.58037 2.98832L5.58115 3.58412C5.58115 3.90154 5.32619 4.15194 4.9852 4.15194C4.64421 4.15268 4.3877 3.90302 4.3877 3.5856L4.38692 3.01851C2.87574 3.16065 2.03955 3.99434 2.04188 5.59175L2.04265 5.82079ZM10.4559 9.16771V9.17581C10.4637 9.51459 10.7582 9.77162 11.1154 9.76426C11.4642 9.75616 11.7424 9.47556 11.7346 9.13678C11.7184 8.81273 11.4386 8.54834 11.0906 8.54908C10.7341 8.55644 10.4552 8.82894 10.4559 9.16771ZM11.095 12.4744C10.7385 12.4671 10.451 12.1879 10.4502 11.8492C10.4425 11.5104 10.7284 11.2298 11.0849 11.2217H11.0927C11.4569 11.2217 11.7522 11.5008 11.7522 11.8469C11.7529 12.1931 11.4584 12.4737 11.095 12.4744ZM7.26078 9.17952C7.27628 9.5183 7.57154 9.78269 7.92803 9.76796C8.27676 9.75249 8.55497 9.47263 8.53947 9.13386C8.53095 8.80244 8.24421 8.54468 7.89548 8.54541C7.53899 8.56014 7.26 8.84074 7.26078 9.17952ZM7.93275 12.4415C7.57626 12.4563 7.28178 12.1919 7.2655 11.8531C7.2655 11.5143 7.54372 11.2345 7.9002 11.219C8.24894 11.2183 8.53645 11.476 8.5442 11.8067C8.56047 12.1462 8.28148 12.4261 7.93275 12.4415ZM4.06841 9.20564C4.08391 9.54442 4.37917 9.80955 4.73566 9.79408C5.08439 9.77935 5.36261 9.49876 5.34633 9.15998C5.33858 8.82857 5.05184 8.5708 4.70233 8.57154C4.34585 8.58627 4.06764 8.86686 4.06841 9.20564ZM4.74312 12.445C4.38663 12.4604 4.09215 12.1953 4.07587 11.8565C4.0751 11.5177 4.35409 11.2371 4.71057 11.2224C5.05931 11.2217 5.34682 11.4794 5.35457 11.8109C5.37084 12.1496 5.09263 12.4302 4.74312 12.445Z" fill="#030229"/>
  </g>
</svg>