<svg xmlns="http://www.w3.org/2000/svg" width="20" height="20" viewBox="0 0 20 20" fill="none">
  <path d="M10.0003 1.66675C8.90598 1.66675 7.82234 1.8823 6.8113 2.30109C5.80025 2.71987 4.88159 3.3337 4.10777 4.10752C2.54497 5.67033 1.66699 7.78994 1.66699 10.0001C1.66699 12.2102 2.54497 14.3298 4.10777 15.8926C4.88159 16.6665 5.80025 17.2803 6.8113 17.6991C7.82234 18.1179 8.90598 18.3334 10.0003 18.3334C12.2105 18.3334 14.3301 17.4554 15.8929 15.8926C17.4557 14.3298 18.3337 12.2102 18.3337 10.0001C18.3337 8.90573 18.1181 7.8221 17.6993 6.81105C17.2805 5.80001 16.6667 4.88135 15.8929 4.10752C15.1191 3.3337 14.2004 2.71987 13.1894 2.30109C12.1783 1.8823 11.0947 1.66675 10.0003 1.66675ZM13.5003 13.5001L9.16699 10.8334V5.83341H10.417V10.1667L14.167 12.4167L13.5003 13.5001Z" fill="#7D83A2"/>
</svg>