<svg xmlns="http://www.w3.org/2000/svg" width="40" height="30" viewBox="0 0 40 30" fill="none">
  <path d="M21.43 30V21.4286H27.1443L20.0014 12.8571L12.8585 21.4286H18.5728V30H11.43V29.9286C11.19 29.9429 10.9614 30 10.7157 30C7.87408 30 5.14886 28.8712 3.13955 26.8619C1.13023 24.8525 0.00140381 22.1273 0.00140381 19.2857C0.00140381 13.7886 4.15855 9.30857 9.49283 8.69429C9.96051 6.24941 11.2655 4.04391 13.1834 2.45714C15.1013 0.87037 17.5122 0.00150861 20.0014 0C22.491 0.00139332 24.9022 0.870151 26.8206 2.45689C28.739 4.04362 30.0445 6.24917 30.5128 8.69429C35.8471 9.30857 39.9985 13.7886 39.9985 19.2857C39.9985 22.1273 38.8697 24.8525 36.8604 26.8619C34.8511 28.8712 32.1259 30 29.2843 30C29.0443 30 28.8128 29.9429 28.57 29.9286V30H21.43Z" fill="#605BFF"/>
</svg>