<svg width="32" height="32" viewBox="0 0 32 32" fill="none" xmlns="http://www.w3.org/2000/svg">
<g id="Asset 65 1" clip-path="url(#clip0_84_3616)">
<g id="Layer_1-2">
<g id="Group">
<path id="Vector" d="M32 16C32 22.0948 28.5929 27.3929 23.5793 30.0938C21.3239 31.3099 18.7427 32 16.0005 32C13.2583 32 10.6761 31.3099 8.41973 30.0938C3.40712 27.3919 0 22.0938 0 16C0 7.16409 7.16331 0 16.0005 0C24.8377 0 32 7.16409 32 16Z" fill="#FEB173"/>
<g id="Group_2">
<path id="Vector_2" d="M25.9643 6.72256C25.2551 6.01339 24.1063 6.01339 23.3971 6.72256C22.8147 7.30498 22.7121 8.18616 23.0873 8.8742L21.2414 10.72C19.978 9.56325 18.3312 8.81988 16.5135 8.70118V6.44392C17.2659 6.22262 17.8162 5.52754 17.8162 4.7037C17.8162 3.70181 17.0034 2.88904 16.0015 2.88904V24.2033C20.2878 24.2033 23.7623 20.7288 23.7623 16.4427C23.7623 14.5455 23.0813 12.8093 21.9506 11.4604L23.8126 9.59846C24.5017 9.97467 25.3819 9.87206 25.9643 9.28863C26.6735 8.57947 26.6735 7.43072 25.9643 6.72155V6.72256Z" fill="#08BED0"/>
<path id="Vector_3" d="M14.1856 4.7037C14.1856 5.52855 14.7359 6.22262 15.4883 6.44392V8.70118C13.6706 8.81988 12.0229 9.56325 10.7604 10.72L8.9145 8.8742C9.29072 8.18515 9.18812 7.30498 8.60467 6.72256C7.89548 6.01339 6.7467 6.01339 6.03751 6.72256C5.32832 7.43173 5.32832 8.58048 6.03751 9.28964C6.61995 9.87206 7.50115 9.97467 8.18922 9.59946L10.0512 11.4614C8.92054 12.8093 8.23951 14.5465 8.23951 16.4437C8.23951 20.7299 11.714 24.2043 16.0004 24.2043V2.88904C14.9974 2.88904 14.1856 3.70181 14.1856 4.7037Z" fill="#0691AE"/>
</g>
<path id="Vector_4" d="M23.5944 30.0938C21.3391 31.3099 18.7578 32 16.0156 32V27.2008H18.0637V28.3294C19.4952 28.6453 20.8944 29.0245 22.2374 29.5204C22.5301 29.614 22.852 29.7367 23.193 29.8946C23.197 29.8966 23.2021 29.8987 23.2071 29.9007C23.3338 29.961 23.4626 30.0244 23.5944 30.0938Z" fill="#08BED0"/>
<g id="Group_3">
<path id="Vector_5" d="M16.0151 13.9661V18.9182C18.9897 18.9846 20.9191 16.4356 20.9191 16.4356C20.9191 16.4356 18.9857 13.8957 16.0151 13.9661Z" fill="white"/>
<path id="Vector_6" d="M11.1121 16.4497C12.9217 18.2543 14.5886 18.887 16.015 18.9182V13.9661C14.5866 14.0003 12.9197 14.636 11.1121 16.4497Z" fill="#E0E0E0"/>
</g>
<path id="Vector_7" d="M16.0156 27.2008V32C13.2734 32 10.6911 31.3099 8.43481 30.0938C8.56659 30.0244 8.69636 29.961 8.82311 29.9017C8.82814 29.8987 8.83317 29.8966 8.83719 29.8946C9.17821 29.7367 9.50011 29.614 9.79284 29.5204C11.1358 29.0245 12.535 28.6453 13.9665 28.3294V27.2008H16.0156Z" fill="#0691AE"/>
<g id="Group_4">
<path id="Vector_8" d="M17.2889 15.1701C16.9378 14.819 16.4771 14.643 16.0164 14.643V18.2422C16.4771 18.2422 16.9378 18.0661 17.2889 17.7151C17.992 17.0119 17.992 15.8732 17.2889 15.1701Z" fill="#08BED0"/>
<path id="Vector_9" d="M14.7439 15.1701C14.0408 15.8732 14.0408 17.0119 14.7439 17.7151C15.095 18.0661 15.5557 18.2422 16.0164 18.2422V14.643C15.5557 14.643 15.095 14.819 14.7439 15.1701Z" fill="#0691AE"/>
</g>
<g id="Group_5">
<path id="Vector_10" d="M16.7271 3.99047C16.5259 3.78929 16.2623 3.69171 15.9988 3.69574V5.70957C16.2613 5.71359 16.5259 5.61602 16.7271 5.41484C17.1204 5.02153 17.1204 4.38277 16.7271 3.98946V3.99047Z" fill="white"/>
<path id="Vector_11" d="M15.3018 3.99044C14.9085 4.38375 14.9085 5.02251 15.3018 5.41582C15.495 5.60895 15.7465 5.70652 15.9989 5.71055V3.69672C15.7465 3.70074 15.495 3.79831 15.3018 3.99145V3.99044Z" fill="#E0E0E0"/>
</g>
<path id="Vector_12" d="M17.0235 16.165C17.4269 16.165 17.7538 15.838 17.7538 15.4347C17.7538 15.0313 17.4269 14.7044 17.0235 14.7044C16.6202 14.7044 16.2932 15.0313 16.2932 15.4347C16.2932 15.838 16.6202 16.165 17.0235 16.165Z" fill="white"/>
<path id="Vector_13" d="M15.9994 5.3102C16.3344 5.3102 16.606 5.03864 16.606 4.70364C16.606 4.36864 16.3344 4.09708 15.9994 4.09708C15.6644 4.09708 15.3928 4.36864 15.3928 4.70364C15.3928 5.03864 15.6644 5.3102 15.9994 5.3102Z" fill="#024C74"/>
<path id="Vector_14" d="M24.6798 9.01294C25.2365 9.01294 25.6878 8.56168 25.6878 8.00502C25.6878 7.44836 25.2365 6.9971 24.6798 6.9971C24.1231 6.9971 23.6719 7.44836 23.6719 8.00502C23.6719 8.56168 24.1231 9.01294 24.6798 9.01294Z" fill="white"/>
<path id="Vector_15" d="M24.6637 8.61159C24.9987 8.61159 25.2703 8.34003 25.2703 8.00503C25.2703 7.67004 24.9987 7.39847 24.6637 7.39847C24.3287 7.39847 24.0571 7.67004 24.0571 8.00503C24.0571 8.34003 24.3287 8.61159 24.6637 8.61159Z" fill="#024C74"/>
<path id="Vector_16" d="M7.32021 9.01294C7.87689 9.01294 8.32816 8.56168 8.32816 8.00502C8.32816 7.44836 7.87689 6.9971 7.32021 6.9971C6.76353 6.9971 6.31226 7.44836 6.31226 8.00502C6.31226 8.56168 6.76353 9.01294 7.32021 9.01294Z" fill="#E0E0E0"/>
<path id="Vector_17" d="M7.30531 8.61159C7.64032 8.61159 7.9119 8.34003 7.9119 8.00503C7.9119 7.67004 7.64032 7.39847 7.30531 7.39847C6.97031 7.39847 6.69873 7.67004 6.69873 8.00503C6.69873 8.34003 6.97031 8.61159 7.30531 8.61159Z" fill="#024C74"/>
<path id="Vector_18" d="M21.9254 24.5281H10.1298C9.90089 24.5281 9.71533 24.7137 9.71533 24.9425V24.9435C9.71533 25.1724 9.90089 25.358 10.1298 25.358H21.9254C22.1543 25.358 22.3399 25.1724 22.3399 24.9435V24.9425C22.3399 24.7137 22.1543 24.5281 21.9254 24.5281Z" fill="#024C74"/>
<path id="Vector_19" d="M18.757 25.7161H13.2987C13.0698 25.7161 12.8843 25.9016 12.8843 26.1305V26.1315C12.8843 26.3604 13.0698 26.546 13.2987 26.546H18.757C18.9859 26.546 19.1714 26.3604 19.1714 26.1315V26.1305C19.1714 25.9016 18.9859 25.7161 18.757 25.7161Z" fill="#024C74"/>
<g id="Group_6">
<path id="Vector_20" d="M16.8208 15.6227C16.5945 15.3964 16.2977 15.2827 16.001 15.2827V17.6024C16.2977 17.6024 16.5945 17.4887 16.8208 17.2624C17.2735 16.8097 17.2735 16.0754 16.8208 15.6227Z" fill="#024C74"/>
<path id="Vector_21" d="M15.1801 15.6227C14.7274 16.0754 14.7274 16.8097 15.1801 17.2624C15.4064 17.4887 15.7032 17.6024 15.9999 17.6024V15.2827C15.7032 15.2827 15.4064 15.3964 15.1801 15.6227Z" fill="#024C74"/>
</g>
</g>
</g>
</g>
<defs>
<clipPath id="clip0_84_3616">
<rect width="32" height="32" fill="white"/>
</clipPath>
</defs>
</svg>
