<svg width="32" height="32" viewBox="0 0 32 32" fill="none" xmlns="http://www.w3.org/2000/svg">
<g id="Asset 17" clip-path="url(#clip0_84_3579)">
<g id="Layer_1-2">
<g id="Group">
<path id="Vector" d="M32 16C32 19.0238 31.161 21.8514 29.7024 24.2635C28.9369 25.533 27.9984 26.6868 26.921 27.6917C26.4794 28.1051 26.0147 28.4934 25.5288 28.8545C25.2773 29.0416 25.0188 29.2217 24.7562 29.3937C24.6345 29.4732 24.5108 29.5516 24.387 29.6281C24.3609 29.6442 24.3337 29.6613 24.3066 29.6763C24.0692 29.8222 23.8257 29.961 23.5793 30.0938C23.539 30.1159 23.4988 30.1371 23.4586 30.1582C22.9606 30.4217 22.4466 30.6601 21.9175 30.8694C21.8018 30.9156 21.6851 30.9609 21.5684 31.0042H21.5674C20.9447 31.2355 20.3049 31.4286 19.648 31.5815C19.134 31.7023 18.6109 31.7968 18.0788 31.8652C17.8876 31.8914 17.6945 31.9125 17.5014 31.9296C17.3424 31.9447 17.1825 31.9578 17.0225 31.9668C17.0095 31.9678 16.9974 31.9688 16.9843 31.9698C16.755 31.9839 16.5236 31.993 16.2902 31.997C16.247 31.997 16.2047 31.999 16.1615 31.999C16.1423 31.999 16.1222 31.999 16.1031 31.999C16.0689 31.999 16.0347 31.999 16.0005 31.999H15.9854C15.9261 31.999 15.8677 31.999 15.8094 31.999C15.5428 31.996 15.2792 31.9859 15.0167 31.9698C14.9976 31.9688 14.9775 31.9678 14.9583 31.9658C14.9463 31.9658 14.9342 31.9648 14.9231 31.9628C14.5801 31.9407 14.2411 31.9075 13.9041 31.8632C13.715 31.8381 13.5259 31.8099 13.3388 31.7787C12.3298 31.6107 11.351 31.3472 10.4155 30.9981C10.3119 30.9599 10.2083 30.9197 10.1057 30.8784C9.65301 30.6994 9.2104 30.5002 8.77986 30.2809C8.65814 30.2205 8.53843 30.1582 8.41973 30.0938C8.33825 30.0505 8.25777 30.0053 8.1773 29.96C7.98818 29.8544 7.80007 29.7437 7.61598 29.6301C7.4842 29.5486 7.35444 29.4661 7.22467 29.3816C6.96413 29.2106 6.70963 29.0316 6.46016 28.8465C6.13121 28.602 5.81132 28.3445 5.5025 28.0739C4.24608 26.9815 3.16167 25.696 2.29656 24.2635C0.838955 21.8514 0 19.0238 0 16C0 7.16409 7.16331 0 16.0005 0C24.8377 0 32 7.16409 32 16Z" fill="#E3E2FC"/>
<g id="Group_2">
<path id="Vector_2" d="M26.687 15.4798C26.687 16.6598 26.4898 17.7944 26.1256 18.8517C26.02 19.1595 25.9003 19.4612 25.7665 19.755C25.7625 19.764 25.7585 19.7741 25.7545 19.7831C25.7545 19.7841 25.7534 19.7841 25.7534 19.7851C25.1418 21.122 24.2556 22.308 23.1672 23.2686C23.0897 23.338 23.0113 23.4054 22.9318 23.4708C22.9298 23.4718 22.9288 23.4728 22.9268 23.4738C22.631 23.7213 22.3222 23.9506 22.0003 24.1629C22.3695 24.2685 22.7316 24.3912 23.0857 24.5371C23.5022 24.7091 23.9096 24.9143 24.3059 25.1607V29.6763C24.0685 29.8221 23.8251 29.9609 23.5786 30.0937C23.5384 30.1158 23.4981 30.137 23.4579 30.1581C22.9599 30.4216 22.4459 30.66 21.9168 30.8693C21.8011 30.9155 21.6844 30.9608 21.5677 31.0041H21.5667C20.944 31.2354 20.3043 31.4285 19.6474 31.5814C19.1333 31.7022 18.6103 31.7967 18.0781 31.8651C17.887 31.8913 17.6938 31.9124 17.5007 31.9295C17.3418 31.9446 17.1818 31.9577 17.0219 31.9667C17.0088 31.9677 16.9967 31.9687 16.9836 31.9697C16.7543 31.9838 16.5229 31.9929 16.2896 31.9969V5.08377C20.4843 5.08377 24.1077 7.58044 25.7494 11.1655H25.7504C25.7504 11.1655 25.7524 11.1705 25.7534 11.1725C26.353 12.4863 26.687 13.9438 26.687 15.4798Z" fill="#62C2E8"/>
<path id="Vector_3" d="M16.2897 5.08377V31.9969C16.2464 31.9969 16.2042 31.9989 16.1609 31.9989C16.1418 31.9989 16.1217 31.9989 16.1026 31.9989C16.0683 31.9989 16.0341 31.9989 15.9999 31.9989H15.9849C15.9255 31.9989 15.8672 31.9989 15.8088 31.9989C15.5422 31.9959 15.2787 31.9858 15.0161 31.9697C14.997 31.9687 14.9769 31.9677 14.9578 31.9657C14.9457 31.9657 14.9336 31.9647 14.9226 31.9627C14.5796 31.9406 14.2406 31.9074 13.9036 31.8631C13.7144 31.8379 13.5253 31.8098 13.3382 31.7786C12.3293 31.6106 11.3505 31.3471 10.415 30.998C10.3113 30.9598 10.2077 30.9196 10.1051 30.8783C9.65245 30.6993 9.20984 30.5001 8.7793 30.2808C8.65758 30.2204 8.53787 30.1581 8.41917 30.0937C8.33769 30.0504 8.25721 30.0052 8.17674 29.9599V25.2885C8.61231 25.0008 9.05895 24.7654 9.51866 24.5703C9.87577 24.4194 10.2409 24.2916 10.6121 24.183C10.4109 24.0512 10.2148 23.9114 10.0236 23.7665L10.0186 23.7625C9.89489 23.668 9.77216 23.5724 9.65245 23.4728C9.57198 23.4054 9.49251 23.338 9.41405 23.2686C8.32562 22.307 7.43938 21.121 6.82978 19.7841C6.79256 19.7016 6.75635 19.6192 6.72014 19.5357L6.71712 19.5296C6.68292 19.4482 6.64871 19.3667 6.61753 19.2852C6.55114 19.1162 6.48877 18.9462 6.43042 18.7732C6.37208 18.6012 6.31876 18.4262 6.27048 18.2501C6.24734 18.1666 6.22521 18.0831 6.20409 17.9997C6.17492 17.885 6.14876 17.7693 6.12462 17.6526C6.10852 17.5822 6.09444 17.5118 6.08136 17.4404C5.95864 16.8056 5.89526 16.1508 5.89526 15.4798C5.89526 14.3291 6.08337 13.2206 6.43042 12.1845C6.54611 11.8395 6.6799 11.5025 6.82978 11.1735C8.46846 7.58446 12.0929 5.08377 16.2897 5.08377Z" fill="#61AFD6"/>
</g>
<path id="Vector_4" d="M8.17724 25.2886V29.96C7.98812 29.8544 7.80001 29.7437 7.61592 29.6301C7.48415 29.5486 7.35438 29.4661 7.22461 29.3816C6.96407 29.2106 6.70957 29.0316 6.4601 28.8465C6.13115 28.602 5.81127 28.3445 5.50244 28.0739C6.33134 26.8055 7.22461 25.9203 8.17724 25.2886Z" fill="#1C8FC9"/>
<path id="Vector_5" d="M26.9208 27.6917C26.4792 28.1051 26.0145 28.4934 25.5286 28.8545C25.2771 29.0416 25.0186 29.2217 24.7561 29.3937C24.6343 29.4732 24.5106 29.5516 24.3869 29.6281C24.3607 29.6442 24.3336 29.6613 24.3064 29.6764V25.1608C25.2349 25.7382 26.108 26.5419 26.9208 27.6917Z" fill="#3299D9"/>
<path id="Vector_6" d="M27.7319 12.3556C27.0841 11.7299 26.4081 11.3497 25.7502 11.1666C25.7513 11.1686 25.7523 11.1716 25.7533 11.1736C26.3528 12.4863 26.6868 13.9449 26.6868 15.4809C26.6868 17.017 26.3528 18.4725 25.7543 19.7832C26.4111 19.5991 27.0851 19.2189 27.7319 18.5932C27.9875 18.3458 28.1273 18.0018 28.1273 17.6457V13.3021C28.1273 12.9461 27.9875 12.602 27.7319 12.3546V12.3556Z" fill="#3299D9"/>
<path id="Vector_7" d="M5.89573 15.4799C5.89573 13.9449 6.2297 12.4874 6.82924 11.1736V11.1716C6.17941 11.3567 5.51146 11.7359 4.87068 12.3546C4.61517 12.602 4.47534 12.9461 4.47534 13.3021V17.6457C4.47534 18.0018 4.61517 18.3458 4.87068 18.5932C5.50945 19.2119 6.17639 19.5911 6.82623 19.7772C6.2287 18.4675 5.89573 17.0129 5.89573 15.4809V15.4799Z" fill="#1C8FC9"/>
<path id="Vector_8" d="M23.168 23.2687C22.8551 23.5453 22.5242 23.8028 22.1802 24.0402C22.1781 24.0412 22.1771 24.0433 22.1751 24.0443C22.1641 24.0523 22.152 24.0593 22.1409 24.0664C22.0554 24.1247 21.9689 24.1821 21.8814 24.2384C21.8603 24.2515 21.8401 24.2646 21.819 24.2776C21.7345 24.3309 21.648 24.3833 21.5615 24.4346C21.5374 24.4486 21.5142 24.4627 21.4901 24.4758C21.4056 24.5251 21.3211 24.5724 21.2346 24.6186C21.2074 24.6337 21.1812 24.6478 21.1541 24.6619C21.0706 24.7061 20.9861 24.7494 20.9016 24.7917C20.8714 24.8067 20.8422 24.8208 20.8121 24.8359C20.7296 24.8761 20.6461 24.9154 20.5616 24.9526C20.5284 24.9677 20.4962 24.9818 20.463 24.9969C20.3815 25.0331 20.298 25.0673 20.2155 25.1015C20.1793 25.1166 20.1441 25.1306 20.1079 25.1447C20.0264 25.1769 19.9449 25.2071 19.8635 25.2373C19.8252 25.2514 19.786 25.2654 19.7478 25.2795C19.6673 25.3077 19.5868 25.3348 19.5054 25.361C19.4641 25.3741 19.4229 25.3882 19.3816 25.4012C19.3022 25.4264 19.2217 25.4495 19.1412 25.4727C19.0979 25.4847 19.0547 25.4978 19.0104 25.5099C18.931 25.531 18.8515 25.5511 18.772 25.5712C18.7257 25.5823 18.6805 25.5944 18.6342 25.6044C18.5557 25.6225 18.4763 25.6386 18.3968 25.6557C18.3485 25.6658 18.3012 25.6758 18.253 25.6849C18.1745 25.7 18.095 25.7131 18.0156 25.7261C17.9663 25.7342 17.917 25.7432 17.8677 25.7513C17.7882 25.7634 17.7077 25.7734 17.6283 25.7835C17.578 25.7895 17.5287 25.7976 17.4794 25.8026C17.3979 25.8116 17.3144 25.8187 17.2319 25.8267C17.1836 25.8308 17.1343 25.8368 17.0861 25.8408C16.9965 25.8479 16.907 25.8519 16.8165 25.8569C16.7742 25.8589 16.732 25.8619 16.6897 25.864C16.5569 25.869 16.4242 25.872 16.2904 25.872C16.1566 25.872 16.0228 25.869 15.891 25.864C15.8488 25.8619 15.8065 25.8589 15.7643 25.8569C15.6737 25.8519 15.5832 25.8479 15.4937 25.8408C15.4454 25.8368 15.3971 25.8318 15.3488 25.8277C15.2663 25.8207 15.1828 25.8126 15.1013 25.8036C15.051 25.7976 15.0018 25.7905 14.9525 25.7845C14.872 25.7744 14.7915 25.7644 14.712 25.7523C14.6627 25.7442 14.6135 25.7352 14.5652 25.7271C14.4857 25.7141 14.4062 25.701 14.3278 25.6859C14.2795 25.6769 14.2322 25.6658 14.1849 25.6567C14.1055 25.6406 14.026 25.6235 13.9475 25.6054C13.9013 25.5944 13.856 25.5833 13.8097 25.5722C13.7302 25.5521 13.6508 25.533 13.5713 25.5109C13.528 25.4988 13.4838 25.4857 13.4405 25.4737C13.3601 25.4505 13.2796 25.4274 13.2001 25.4022C13.1589 25.3892 13.1186 25.3761 13.0774 25.362C12.9959 25.3358 12.9144 25.3087 12.8339 25.2795C12.7957 25.2654 12.7575 25.2514 12.7193 25.2373C12.6368 25.2071 12.5553 25.1759 12.4738 25.1437C12.4386 25.1296 12.4034 25.1156 12.3672 25.1005C12.2837 25.0663 12.2012 25.0311 12.1187 24.9948C12.0865 24.9808 12.0543 24.9657 12.0211 24.9516C11.9366 24.9134 11.8532 24.8741 11.7697 24.8339C11.7405 24.8198 11.7103 24.8047 11.6811 24.7906C11.5956 24.7484 11.5111 24.7041 11.4266 24.6599C11.4005 24.6458 11.3743 24.6317 11.3482 24.6176C11.2617 24.5704 11.1762 24.5221 11.0907 24.4728C11.0675 24.4597 11.0444 24.4456 11.0222 24.4325C10.9347 24.3812 10.8482 24.3279 10.7617 24.2736C10.7416 24.2615 10.7225 24.2485 10.7024 24.2364C10.6138 24.1801 10.5263 24.1217 10.4398 24.0624C10.4297 24.0553 10.4187 24.0483 10.4086 24.0412C10.4066 24.0402 10.4056 24.0392 10.4046 24.0372C10.0596 23.7988 9.72961 23.5423 9.41576 23.2657C9.38659 23.325 9.36244 23.3864 9.34233 23.4508C9.17635 23.9859 9.37351 24.5583 9.83423 24.8751C11.7415 26.1899 13.9737 26.8839 16.2914 26.8839C18.6091 26.8839 20.8422 26.1889 22.7495 24.8751C23.2102 24.5573 23.4084 23.9849 23.2414 23.4498C23.2213 23.3854 23.1961 23.324 23.168 23.2657V23.2687Z" fill="#3299D9"/>
<path id="Vector_9" d="M26.6877 15.48C26.6877 17.015 26.3538 18.4725 25.7542 19.7852C24.2866 20.0327 22.7042 20.2188 21.0464 20.3385C20.6762 20.3657 20.303 20.3888 19.9258 20.4109C18.7408 20.4763 17.5246 20.5085 16.2913 20.5085C16.1606 20.5085 16.0288 20.5085 15.9 20.5065C15.8789 20.5075 15.8588 20.5065 15.8366 20.5065C15.2009 20.5035 14.5682 20.4894 13.9445 20.4683C13.7453 20.4612 13.5461 20.4532 13.348 20.4441C12.8289 20.422 12.3148 20.3938 11.8079 20.3576C11.4196 20.3315 11.0363 20.3013 10.6571 20.2671C9.32016 20.1494 8.03658 19.9874 6.83146 19.7832C6.23192 18.4715 5.89795 17.014 5.89795 15.4789C5.89795 13.9439 6.23192 12.4864 6.83146 11.1726C9.42377 10.7361 12.3742 10.4906 15.4494 10.4534C15.6978 10.4504 15.9463 10.4474 16.1968 10.4474H16.2923C16.739 10.4474 17.1836 10.4514 17.6252 10.4605C18.0729 10.4695 18.5185 10.4816 18.9611 10.4997C19.1643 10.5077 19.3685 10.5168 19.5707 10.5269C20.1894 10.557 20.802 10.5963 21.4045 10.6435C22.0976 10.6989 22.7787 10.7663 23.4426 10.8447C24.2393 10.9363 25.0118 11.0449 25.7552 11.1696C26.3548 12.4823 26.6887 13.9409 26.6887 15.4769L26.6877 15.48Z" fill="#3C3642"/>
<path id="Vector_10" d="M23.4415 10.8477L19.9247 20.4109C18.7397 20.4763 17.5235 20.5085 16.2902 20.5085C16.1595 20.5085 16.0277 20.5085 15.8989 20.5065L19.5696 10.5299C20.1883 10.5601 20.8009 10.5993 21.4034 10.6466C22.0965 10.7019 22.7776 10.7693 23.4415 10.8477Z" fill="white"/>
<path id="Vector_11" d="M17.6242 10.4625L13.9435 20.4673C13.7443 20.4602 13.5452 20.4522 13.347 20.4431C12.8279 20.421 12.3139 20.3928 11.8069 20.3566L15.4484 10.4534C15.6969 10.4504 15.9453 10.4474 16.1958 10.4474H16.2914C16.738 10.4474 17.1826 10.4514 17.6242 10.4605V10.4625Z" fill="white"/>
<path id="Vector_12" d="M12.9534 29.2659H10.2022C9.90644 29.2659 9.66602 29.0255 9.66602 28.7298C9.66602 28.434 9.90644 28.1936 10.2022 28.1936H12.9534C13.2492 28.1936 13.4896 28.434 13.4896 28.7298C13.4896 29.0255 13.2492 29.2659 12.9534 29.2659Z" fill="#1C8FC9"/>
<path id="Vector_13" d="M22.9053 29.2659H20.1541C19.8583 29.2659 19.6179 29.0255 19.6179 28.7298C19.6179 28.434 19.8583 28.1936 20.1541 28.1936H22.9053C23.2011 28.1936 23.4415 28.434 23.4415 28.7298C23.4415 29.0255 23.2011 29.2659 22.9053 29.2659Z" fill="#3299D9"/>
<path id="Vector_14" d="M13.4897 31.4055C13.4897 31.5504 13.4314 31.6821 13.3388 31.7787C12.3298 31.6107 11.3511 31.3472 10.4155 30.9981C10.3119 30.9599 10.2083 30.9196 10.1057 30.8784C10.1369 30.8724 10.1691 30.8694 10.2023 30.8694H12.9535C13.2493 30.8694 13.4897 31.1088 13.4897 31.4055Z" fill="#1C8FC9"/>
<path id="Vector_15" d="M21.9175 30.8694C21.8018 30.9156 21.6851 30.9609 21.5684 31.0041H21.5674C20.9448 31.2355 20.305 31.4286 19.6481 31.5815C19.628 31.5262 19.6179 31.4669 19.6179 31.4055C19.6179 31.2566 19.6783 31.1228 19.7748 31.0263C19.8714 30.9297 20.0062 30.8694 20.1541 30.8694H21.9175Z" fill="#3299D9"/>
<path id="Vector_16" d="M15.891 25.867C15.8488 25.865 15.8065 25.8619 15.7643 25.8599C15.6737 25.8549 15.5832 25.8509 15.4937 25.8438C15.4454 25.8398 15.3971 25.8348 15.3488 25.8308C15.2663 25.8237 15.1828 25.8157 15.1013 25.8066C15.051 25.8006 15.0018 25.7935 14.9525 25.7875C14.872 25.7774 14.7915 25.7674 14.712 25.7553C14.6627 25.7473 14.6135 25.7382 14.5652 25.7302C14.4857 25.7171 14.4062 25.704 14.3278 25.6889C14.2795 25.6799 14.2322 25.6688 14.1849 25.6598C14.1055 25.6437 14.026 25.6266 13.9475 25.6085C13.9013 25.5974 13.856 25.5863 13.8097 25.5753C13.7302 25.5551 13.6508 25.536 13.5713 25.5139C13.528 25.5018 13.4838 25.4887 13.4405 25.4767C13.3601 25.4535 13.2796 25.4304 13.2001 25.4053C13.1589 25.3922 13.1186 25.3791 13.0774 25.365C12.9959 25.3389 12.9144 25.3117 12.8339 25.2825C12.7957 25.2685 12.7575 25.2544 12.7193 25.2403C12.6368 25.2101 12.5553 25.1789 12.4738 25.1467C12.4386 25.1327 12.4034 25.1186 12.3672 25.1035C12.2837 25.0693 12.2012 25.0341 12.1187 24.9979C12.0865 24.9838 12.0543 24.9687 12.0211 24.9546C11.9366 24.9164 11.8532 24.8772 11.7697 24.8369C11.7405 24.8228 11.7103 24.8077 11.6811 24.7937C11.5956 24.7514 11.5111 24.7072 11.4266 24.6629C11.4005 24.6488 11.3743 24.6347 11.3482 24.6206C11.2617 24.5734 11.1762 24.5251 11.0907 24.4758C11.0675 24.4627 11.0444 24.4486 11.0222 24.4356C10.9347 24.3843 10.8482 24.3309 10.7617 24.2766C10.7416 24.2646 10.7225 24.2515 10.7024 24.2394C10.6138 24.1831 10.5263 24.1247 10.4398 24.0654C10.4297 24.0583 10.4187 24.0513 10.4086 24.0443C10.4066 24.0433 10.4056 24.0423 10.4046 24.0402C10.0596 23.8018 9.72961 23.5453 9.41576 23.2687C9.38659 23.3281 9.36244 23.3894 9.34233 23.4538C9.17635 23.9889 9.37351 24.5613 9.83423 24.8782C11.7415 26.1929 13.9737 26.887 16.2914 26.887V25.874C16.1576 25.874 16.0238 25.871 15.892 25.866L15.891 25.867Z" fill="#1C8FC9"/>
</g>
</g>
</g>
<defs>
<clipPath id="clip0_84_3579">
<rect width="32" height="32" fill="white"/>
</clipPath>
</defs>
</svg>
