<svg width="32" height="32" viewBox="0 0 32 32" fill="none" xmlns="http://www.w3.org/2000/svg">
<g id="Asset 30" clip-path="url(#clip0_84_3563)">
<g id="Layer_1-2">
<g id="Group">
<path id="Vector" d="M32 16C32 17.4877 31.7968 18.9282 31.4176 20.2942C31.0595 21.5818 30.5444 22.804 29.8946 23.9386C29.7246 24.2354 29.5456 24.5261 29.3575 24.8108C28.7539 25.7241 28.0588 26.5721 27.2853 27.3416L27.2833 27.3436C26.9151 27.7098 26.5299 28.0578 26.1285 28.3868C25.703 28.7348 25.2594 29.0617 24.7987 29.3655C22.3805 30.9619 19.5026 31.9175 16.4054 31.994C16.3812 31.996 16.3561 31.996 16.3309 31.996H16.3299C16.3058 31.997 16.2806 31.998 16.2555 31.997C16.171 31.999 16.0855 32 16 32C15.9145 32 15.827 31.999 15.7415 31.998H15.7204C15.6268 31.996 15.5343 31.994 15.4407 31.9899C12.2741 31.8813 9.34188 30.8533 6.90155 29.1623C6.89652 29.1593 6.89149 29.1553 6.88646 29.1523C6.76675 29.0688 6.64705 28.9843 6.52936 28.8968C6.02842 28.5286 5.5496 28.1313 5.09493 27.7078C5.08789 27.7007 5.08085 27.6947 5.07381 27.6877C4.15541 26.8296 3.33861 25.864 2.64252 24.8118C2.59625 24.7414 2.55099 24.6719 2.50572 24.6005C1.8388 23.5564 1.29058 22.4298 0.878159 21.2398C0.308814 19.5981 0 17.8358 0 16C0 7.16409 7.16409 0 16 0C24.8359 0 32 7.16409 32 16Z" fill="#F4F3FF"/>
<path id="Vector_2" d="M26.3007 8.7675C26.1377 8.52709 25.9647 8.30076 25.8007 8.09756C24.6932 6.72148 23.4881 5.41681 22.1815 4.26605C22.613 4.64629 23.974 7.82194 24.1027 8.75543C24.2788 10.0299 17.6046 11.922 17.4849 12.5598C18.529 13.0668 19.4484 13.9218 20.0912 14.9579C20.2964 15.2888 20.4744 15.6379 20.6183 16.001C22.3303 14.5615 24.1269 13.2357 25.9979 12.0307C26.6336 11.6213 27.1567 11.232 27.0179 10.3588C26.9304 9.81364 26.6376 9.2614 26.3027 8.7685L26.3007 8.7675Z" fill="#7A5AF8"/>
<path id="Vector_3" d="M6.50731 8.7675C6.67026 8.52709 6.84328 8.30076 7.00724 8.09756C8.11475 6.72148 9.31983 5.41681 10.6265 4.26605C10.195 4.64629 8.83397 7.82194 8.70522 8.75543C8.52918 10.0299 15.2034 11.922 15.3231 12.5598C14.279 13.0668 13.3596 13.9218 12.7168 14.9579C12.5116 15.2888 12.3335 15.6379 12.1897 16.001C10.4776 14.5615 8.68108 13.2357 6.81008 12.0307C6.17435 11.6213 5.65128 11.232 5.79009 10.3588C5.87761 9.81364 6.17033 9.2614 6.50529 8.7685L6.50731 8.7675Z" fill="#6938EF"/>
<g id="Group_2">
<path id="Vector_4" d="M31.4175 20.2942C31.0594 21.5818 30.5443 22.804 29.8945 23.9386C29.7245 24.2354 29.5455 24.5261 29.3574 24.8108C28.0688 25.1759 27.0096 26.6224 26.1284 28.3868C25.7029 28.7348 25.2593 29.0617 24.7986 29.3655C22.3804 30.9619 19.5025 31.9175 16.4053 31.994L17.374 12.3727C17.6325 12.2087 17.9091 12.0629 18.1998 11.9321C20.3052 10.9866 23.164 10.892 25.3498 11.4171C24.7915 11.5579 23.6026 12.0236 23.1891 12.7026C28.104 12.7751 30.7355 16.176 31.7645 18.2774C31.168 18.2009 30.5715 18.1255 29.976 18.049C30.3512 18.3709 30.8904 19.0751 31.4175 20.2942Z" fill="#9B8AFB"/>
<path id="Vector_5" d="M15.2868 12.3727L16.2555 31.997C16.171 31.999 16.0855 32 16 32C15.9145 32 15.827 31.999 15.7415 31.998H15.7204C15.6268 31.996 15.5343 31.994 15.4407 31.9899C12.2741 31.8813 9.3419 30.8533 6.90156 29.1623C5.87654 26.896 4.593 24.9456 2.95538 24.7393C2.85479 24.7544 2.75017 24.7796 2.64254 24.8118C2.59627 24.7414 2.551 24.672 2.50574 24.6005C1.83882 23.5564 1.2906 22.4298 0.878174 21.2398C1.50787 19.4281 2.22308 18.4464 2.68579 18.049C2.08929 18.1255 1.49379 18.2009 0.897286 18.2774C1.92633 16.176 4.55679 12.7751 9.47267 12.7026C9.05924 12.0236 7.87025 11.5579 7.31097 11.4171C9.49781 10.892 12.3566 10.9866 14.461 11.9321C14.7517 12.0629 15.0283 12.2087 15.2868 12.3727Z" fill="#5925DC"/>
<path id="Vector_6" d="M16.3298 12.4884V31.996C16.3057 31.997 16.2805 31.998 16.2554 31.997C16.1709 31.999 16.0854 32 15.9999 32C15.9144 32 15.8269 31.999 15.7414 31.998H15.7203C15.6267 31.996 15.5342 31.994 15.4406 31.9899C12.274 31.8813 9.34178 30.8533 6.90144 29.1623C6.89641 29.1593 6.89138 29.1553 6.88635 29.1523C6.76665 29.0688 6.64695 28.9843 6.52925 28.8968C6.02831 28.5286 5.5495 28.1313 5.09483 27.7078C5.21755 27.5428 5.33021 27.401 5.42577 27.2843L5.0737 27.6877C4.15531 26.8296 3.33851 25.8639 2.64242 24.8118C2.59615 24.7414 2.55088 24.6719 2.50562 24.6005C3.88271 20.8505 6.28884 18.9071 6.36328 18.8467L3.53868 20.3204C5.8905 15.495 10.2541 14.2326 10.2541 14.2326L7.25351 14.1823C10.1666 12.4944 13.8171 12.5447 13.8171 12.5447L11.6916 11.6696C12.8403 11.6917 13.7567 11.8003 14.4609 11.9321C15.6529 12.1544 16.2413 12.4431 16.3298 12.4884Z" fill="#6938EF"/>
<path id="Vector_7" d="M29.8947 23.9386C29.7247 24.2354 29.5457 24.5261 29.3576 24.8108C28.754 25.7241 28.059 26.5721 27.2854 27.3416L27.2351 27.2843C27.2512 27.3034 27.2663 27.3225 27.2834 27.3436C26.9152 27.7098 26.53 28.0578 26.1286 28.3868C25.7031 28.7348 25.2595 29.0617 24.7988 29.3655C22.3806 30.9619 19.5027 31.9175 16.4055 31.994C16.3813 31.996 16.3562 31.996 16.3311 31.996V12.4884C16.4196 12.4431 17.008 12.1544 18.2 11.9321C18.9042 11.8003 19.8206 11.6917 20.9693 11.6696L18.8438 12.5447C18.8438 12.5447 22.4953 12.4944 25.4084 14.1823L22.4078 14.2326C22.4078 14.2326 26.7714 15.495 29.1222 20.3204L26.2986 18.8467C26.364 18.9 28.4945 20.6181 29.8947 23.9386Z" fill="#7A5AF8"/>
</g>
<path id="Vector_8" d="M16.33 27.5499C19.6055 27.5499 22.2609 24.8945 22.2609 21.619C22.2609 18.3435 19.6055 15.6882 16.33 15.6882C13.0545 15.6882 10.3992 18.3435 10.3992 21.619C10.3992 24.8945 13.0545 27.5499 16.33 27.5499Z" fill="white"/>
<path id="Vector_9" d="M16.3299 25.2866C18.3554 25.2866 19.9974 23.6446 19.9974 21.619C19.9974 19.5935 18.3554 17.9515 16.3299 17.9515C14.3044 17.9515 12.6624 19.5935 12.6624 21.619C12.6624 23.6446 14.3044 25.2866 16.3299 25.2866Z" fill="#FEB173"/>
<path id="Vector_10" d="M16.3301 23.6519C17.4528 23.6519 18.363 22.7418 18.363 21.619C18.363 20.4962 17.4528 19.5861 16.3301 19.5861C15.2073 19.5861 14.2971 20.4962 14.2971 21.619C14.2971 22.7418 15.2073 23.6519 16.3301 23.6519Z" fill="#263238"/>
<path id="Vector_11" d="M20.5617 17.1779C17.9967 14.8372 14.0203 15.0193 11.6806 17.5833C10.734 18.6204 10.1999 19.8889 10.0691 21.1855C14.6912 19.742 19.0066 20.3536 22.5917 21.3615C22.478 19.8144 21.798 18.3056 20.5617 17.1779Z" fill="#5925DC"/>
</g>
</g>
</g>
<defs>
<clipPath id="clip0_84_3563">
<rect width="32" height="32" fill="white"/>
</clipPath>
</defs>
</svg>
