<svg width="32" height="32" viewBox="0 0 32 32" fill="none" xmlns="http://www.w3.org/2000/svg">
<g id="Asset 31" clip-path="url(#clip0_84_3600)">
<g id="Layer_1-2">
<g id="Group">
<path id="Vector" d="M32 16C32 21.5868 29.1372 26.5037 24.7987 29.3655C22.2749 31.0313 19.2511 32 16 32C15.8129 32 15.6268 31.997 15.4407 31.9899C12.2681 31.8813 9.32981 30.8492 6.88646 29.1523C2.72501 26.2633 0 21.45 0 16C0 7.16409 7.16409 0 16 0C24.8359 0 32 7.16409 32 16Z" fill="#E4FFF0"/>
<path id="Vector_2" d="M12.764 12.4682C12.3807 11.9452 5.54459 13.1251 5.15228 11.8989C4.86459 11.0016 4.71773 7.55035 4.94305 7.02023C4.26205 8.62265 3.73998 10.3206 3.33561 12.0397C3.27626 12.2942 3.21792 12.5729 3.17466 12.8605C3.08614 13.45 3.05999 14.0747 3.21792 14.6038C3.4704 15.4518 4.11016 15.5765 4.86057 15.6701C7.06854 15.9477 9.26142 16.3661 11.4271 16.9234C11.4 16.5341 11.409 16.1428 11.4513 15.7556C11.5831 14.5434 12.0418 13.3756 12.764 12.4672V12.4682Z" fill="#29609B"/>
<path id="Vector_3" d="M28.5317 12.763C28.4884 12.4753 28.4311 12.1967 28.3717 11.9422C27.9694 10.222 27.4493 8.52407 26.7703 6.92065C26.9947 7.45077 26.8448 10.902 26.5561 11.7993C26.1618 13.0245 19.3276 11.8375 18.9434 12.3606C19.6646 13.27 20.1223 14.4388 20.2531 15.6509C20.2943 16.0382 20.3033 16.4295 20.2762 16.8188C22.4429 16.2635 24.6368 15.8471 26.8448 15.5725C27.5952 15.4789 28.2349 15.3552 28.4884 14.5072C28.6464 13.9781 28.6212 13.3524 28.5337 12.764L28.5317 12.763Z" fill="#5494CD"/>
<path id="Vector_4" d="M25.4575 19.7973C25.9343 21.949 26.0993 24.2002 25.9454 26.4363C25.6577 26.2713 25.37 26.1074 25.0813 25.9424C25.0652 27.0861 24.9707 28.2319 24.7987 29.3655C22.2748 31.0313 19.2511 32 16 32C15.8129 32 15.6268 31.997 15.4407 31.9899V10.6657C15.4407 10.6657 16.695 9.02704 19.3356 9.2423C18.9422 9.4294 18.1254 9.96153 17.9031 10.5641C19.1062 10.2351 20.2519 10.5027 21.0879 11.0932C20.6473 11.1867 20.3002 11.5136 20.2741 11.7269C20.9209 11.8607 21.5556 12.0588 22.1692 12.3154C23.1288 12.7157 24.0382 13.2619 24.864 13.9359C24.4174 13.953 23.9708 13.9701 23.5242 13.9872C24.1921 14.4348 24.7604 15.0625 25.1749 15.8069C25.2201 15.8863 25.2624 15.9678 25.3036 16.0503C25.0743 15.9407 24.8097 15.9225 24.5653 16C25.6386 17.2101 26.383 18.7904 26.6827 20.4914C26.2743 20.26 25.8659 20.0287 25.4575 19.7973Z" fill="#08BED0"/>
<path id="Vector_5" d="M15.4406 10.6657V31.9899C12.2679 31.8813 9.32967 30.8492 6.88631 29.1523C6.51513 27.7681 6.30489 26.3226 6.26466 24.8641C6.26164 24.7544 6.1349 24.7192 6.0846 24.8148C6.0162 24.9456 5.93371 25.0683 5.83916 25.1769C5.77579 25.2503 5.66715 25.2061 5.66815 25.1055C5.68123 23.488 5.94679 21.8645 6.44773 20.3304C6.48193 20.2258 6.37933 20.1383 6.29987 20.2047C5.84117 20.5789 5.41567 21.0064 5.03141 21.4772C4.961 21.5637 4.83928 21.4903 4.86544 21.3776C5.25774 19.6434 5.93975 17.9826 6.86519 16.513C6.92353 16.4205 6.83903 16.3038 6.7475 16.3501L5.93271 16.7675C5.83715 16.8168 5.75265 16.6901 5.81803 16.5975C5.98904 16.3531 6.16608 16.1137 6.35016 15.8803C7.26051 14.7205 8.32074 13.7095 9.48357 12.8938C9.33067 13.0094 8.23423 12.6443 7.91636 12.4773C7.88417 12.4602 7.86003 12.4451 7.84595 12.433C8.93837 11.9341 10.5679 11.3245 11.7318 11.2853C11.4511 10.4615 10.7309 9.80863 9.37091 9.65472C12.7638 8.78662 14.7163 10.3468 15.4406 10.6657Z" fill="#0691AE"/>
<g id="Group_2">
<path id="Vector_6" d="M15.7881 26.1194C19.2875 26.1194 22.1244 23.1664 22.1244 19.5237C22.1244 15.8809 19.2875 12.9279 15.7881 12.9279C12.2887 12.9279 9.4519 15.8809 9.4519 19.5237C9.4519 23.1664 12.2887 26.1194 15.7881 26.1194Z" fill="white"/>
<path id="Vector_7" d="M15.4401 12.938C12.1045 13.1261 9.45489 16.001 9.45288 19.5206C9.45087 23.0433 12.1014 25.9212 15.4401 26.1093V12.938Z" fill="#E0E0E0"/>
<g id="Group_3">
<path id="Vector_8" d="M15.5285 15.7113C14.6553 15.7746 13.8043 16.1589 13.1686 16.857C11.8479 18.3035 11.9505 20.5477 13.398 21.8674C13.9834 22.4016 14.6986 22.7023 15.4299 22.7768C16.1039 20.3787 16.2326 17.9142 15.5285 15.7113Z" fill="#02A486"/>
<path id="Vector_9" d="M18.4084 21.6381C19.7292 20.1916 19.6266 17.9474 18.1791 16.6277C17.4297 15.9436 16.467 15.6429 15.5285 15.7113C16.2316 17.9132 16.1039 20.3787 15.4299 22.7768C16.5083 22.8854 17.6218 22.5012 18.4084 21.6391V21.6381Z" fill="#04BF8A"/>
<path id="Vector_10" d="M15.5746 21.3504C16.2174 21.4148 16.8813 21.1864 17.3501 20.6724C18.1367 19.8104 18.0763 18.4735 17.2133 17.6859C16.7667 17.2785 16.1923 17.0984 15.634 17.1397C15.1139 17.1779 14.607 17.4062 14.2277 17.8227C13.4411 18.6847 13.5015 20.0216 14.3645 20.8092C14.7136 21.1271 15.1401 21.3072 15.5757 21.3504H15.5746Z" fill="#263238"/>
</g>
</g>
</g>
</g>
</g>
<defs>
<clipPath id="clip0_84_3600">
<rect width="32" height="32" fill="white"/>
</clipPath>
</defs>
</svg>
